<svg xmlns="http://www.w3.org/2000/svg" xmlns:xlink="http://www.w3.org/1999/xlink" id="Layer_1" x="0px" y="0px" viewBox="0 0 540 423" style="enable-background:new 0 0 540 423;" xml:space="preserve"><style type="text/css">	.st0{fill:#F0F0F0;}	.st1{fill-rule:evenodd;clip-rule:evenodd;fill:#3F3D56;}	.st2{fill:#222F65;}	.st3{fill:#3F3D56;}	.st4{opacity:0.1;enable-background:new    ;}	.st5{fill:#2F2E41;}	.st6{fill:#FFB8B8;}	.st7{fill:#FF6584;}	.st8{fill-rule:evenodd;clip-rule:evenodd;fill:#1F2A5B;}</style><path class="st0" d="M125.2,288.3l41.8-66.1l-93.6-59.9L25,238.8l77.5,49.5H125.2z"></path><path class="st1" d="M80,307.3h103v-20H80V307.3z M181.7,306H81.3v-17.4h100.3V306z"></path><path class="st2" d="M171.5,304.3c3.6,0,6.5-2.9,6.5-6.5c0-3.6-2.9-6.5-6.5-6.5s-6.5,2.9-6.5,6.5C165,301.4,167.9,304.3,171.5,304.3 z"></path><path class="st2" d="M151.5,304.3c3.6,0,6.5-2.9,6.5-6.5c0-3.6-2.9-6.5-6.5-6.5s-6.5,2.9-6.5,6.5C145,301.4,147.9,304.3,151.5,304.3 z"></path><path class="st2" d="M133.5,304.3c3.6,0,6.5-2.9,6.5-6.5c0-3.6-2.9-6.5-6.5-6.5s-6.5,2.9-6.5,6.5C127,301.4,129.9,304.3,133.5,304.3 z"></path><path class="st2" d="M114.5,304.3c3.6,0,6.5-2.9,6.5-6.5c0-3.6-2.9-6.5-6.5-6.5s-6.5,2.9-6.5,6.5C108,301.4,110.9,304.3,114.5,304.3 z"></path><path class="st2" d="M95.5,304.3c3.6,0,6.5-2.9,6.5-6.5c0-3.6-2.9-6.5-6.5-6.5s-6.5,2.9-6.5,6.5C89,301.4,91.9,304.3,95.5,304.3z"></path><path class="st0" d="M307.5,76.3V25.2H333V0.3H208v125h106.9v-12.2c0-4.6,1.8-9,5.1-12.3c3.3-3.3,7.7-5.1,12.3-5.1h0.8V76.3H307.5z"></path><rect x="362" y="323.3" class="st2" width="84" height="17"></rect><rect y="414.3" class="st3" width="524" height="1"></rect><path class="st1" d="M331,415.3H484c10,0,18-8.1,18-18V113.3c0-10-8.1-18-18-18H331c-10,0-18,8.1-18,18v283.9 C313,407.2,321.1,415.3,331,415.3z M314.3,113.3c0-9.2,7.5-16.7,16.7-16.7H484c9.2,0,16.7,7.5,16.7,16.7v283.9 c0,9.2-7.5,16.7-16.7,16.7H331c-9.2,0-16.7-7.5-16.7-16.7V113.3z"></path><path class="st1" d="M386,105.3c0,2.2,1.8,4,4,4c2.2,0,4-1.8,4-4c0-2.2-1.8-4-4-4S386,103.1,386,105.3z M387.3,105.3 c0-1.5,1.2-2.7,2.7-2.7c1.5,0,2.7,1.2,2.7,2.7c0,1.5-1.2,2.7-2.7,2.7S387.3,106.8,387.3,105.3z"></path><rect x="400" y="104.3" class="st3" width="30" height="1"></rect><path class="st2" d="M491,114.3v54c-29.8,0-54-24.2-54-54H491z"></path><path class="st1" d="M325,397.3h166v-283H325V397.3z M489.7,396H326.3V115.7h163.3V396z"></path><path class="st4" d="M451.5,165.3c10.2,0,18.5-8.3,18.5-18.5c0-10.2-8.3-18.5-18.5-18.5s-18.5,8.3-18.5,18.5 C433,157,441.3,165.3,451.5,165.3z"></path><path class="st2" d="M448.5,167.3c10.2,0,18.5-8.3,18.5-18.5c0-10.2-8.3-18.5-18.5-18.5s-18.5,8.3-18.5,18.5 C430,159,438.3,167.3,448.5,167.3z"></path><rect x="332" y="125.3" class="st3" width="26" height="9"></rect><rect x="340" y="288.3" class="st0" width="123" height="16"></rect><path class="st1" d="M347,301.3h124v-17H347V301.3z M469.7,300H348.3v-14.4h121.3V300z"></path><path class="st1" d="M366,336.3h85v-18h-85V336.3z M449.7,335h-82.3v-15.4h82.3V335z"></path><path class="st2" d="M466,293.8c0,2.7-1.7,5.2-4.3,6.1c-2.6,0.9-5.5,0.1-7.2-2l0,0c-1.7-2.1-2-5-0.7-7.3c1.3-2.3,3.9-3.6,6.5-3.3 c2.6,0.4,4.8,2.3,5.4,4.9c0,0,0,0,0,0c0,0,0,0,0,0C465.9,292.8,466,293.3,466,293.8z"></path><path class="st4" d="M466,294.4c0,2.9-1.8,5.5-4.4,6.5c-2.6,1-5.6,0.1-7.4-2.1l0,0c-0.1-0.5-0.2-1.1-0.2-1.6c0-2.9,1.8-5.5,4.4-6.5 c2.6-1,5.6-0.1,7.4,2.1c0,0,0,0,0,0c0,0,0,0,0,0C465.9,293.3,466,293.9,466,294.4z"></path><path class="st2" d="M462.5,304.3c3.6,0,6.5-2.9,6.5-6.5c0-3.6-2.9-6.5-6.5-6.5s-6.5,2.9-6.5,6.5C456,301.4,458.9,304.3,462.5,304.3 z"></path><path class="st2" d="M258.5,299c3.6,0,6.5-2.9,6.5-6.5s-2.9-6.5-6.5-6.5s-6.5,2.9-6.5,6.5S254.9,299,258.5,299z"></path><rect x="315" y="32.3" class="st0" width="35" height="35"></rect><path class="st1" d="M443,49.3c0,4.4,3.6,8,8,8c4.4,0,8-3.6,8-8c0-4.4-3.6-8-8-8S443,44.9,443,49.3z M444.3,49.3 c0-3.7,3-6.7,6.7-6.7c3.7,0,6.7,3,6.7,6.7c0,3.7-3,6.7-6.7,6.7S444.3,53,444.3,49.3z"></path><path class="st1" d="M257,170.3h17v-17h-17V170.3z M272.7,169h-14.4v-14.4h14.4V169z"></path><path class="st1" d="M523,301.3h17v-17h-17V301.3z M538.7,300h-14.4v-14.4h14.4V300z"></path><path class="st5" d="M195,184.2l3,1.6l10.2,5.5l16.5,8.9l9.6-17.9c1.8-3.4,2.2-7.4,1.1-11.1c-1.1-3.7-3.6-6.8-7-8.6 c-7.3-4-16.4-2.8-22.4,3.1l0,0c-1.4,1.4-2.7,3-3.6,4.8L195,184.2z"></path><path class="st6" d="M240,364.4l-1.9,22.9l-7.2,1l-4.8-26L240,364.4z"></path><path class="st5" d="M228.4,388.9c0,0,9.6-5.1,11.6-1c0,0-1.5,12.3,4.5,13.9c6,1.5,8.6,12.3,0,13.3c-8.6,1-14.1-2.1-17.1-2.1 c-3,0,0-10.8,0-10.8L228.4,388.9z"></path><path class="st6" d="M179,364.4l1.9,22.9l7.2,1l4.8-26L179,364.4z"></path><path class="st5" d="M191.6,388.9c0,0-9.6-5.1-11.6-1c0,0,1.5,12.3-4.5,13.9c-6,1.5-8.6,12.3,0,13.3c8.6,1,14.1-2.1,17.1-2.1 c3,0,0-10.8,0-10.8L191.6,388.9z"></path><path class="st6" d="M219.5,188.3c7.5,0,13.5-6,13.5-13.5c0-7.5-6-13.5-13.5-13.5s-13.5,6-13.5,13.5 C206,182.3,212,188.3,219.5,188.3z"></path><path class="st6" d="M179,200.1l10.5,16.7l12.5-1l20.5,1.5c0,0,1.9-3.9,3.5-7.7c0.9-1.9,1.5-3.9,2-5.9c0.5-3.5-6.5-7.1-6.5-7.1 s-0.3-0.1-0.7-0.2c-0.6-0.1-1.5-0.4-2.6-0.7c-2.3-0.8-5.1-2.2-5.7-4.2c-1-3.5,6.5-8.6,6.5-8.6l-9-8.6c0,0-8,11.2-17.7,13.8 c-0.6,0.2-1.1,0.3-1.7,0.4c0,0-0.1,0-0.1,0C180,190,179,200.1,179,200.1z"></path><path class="st6" d="M184.3,196.3l-5.8,4.5c0,0-4.7,21.7-3.2,27.7c1.6,6.1-0.5,11.6-0.5,12.6c0,1-4.7,38.8-4.7,38.8 s-9.5,20.2,0.5,18.2s6.3-22.2,6.3-22.2l12.1-35.3v-29.8L184.3,196.3z"></path><path class="st6" d="M224,200.3l4.1,3l2,42l15.3,36c0,0,11.3,17.5,4.1,18c-7.2,0.5-11.8-18-11.8-18L224,246.8l-2-33.5L224,200.3z"></path><path class="st5" d="M198.7,202.3c0,0,10.1,7.1,26.2,4.6c0,0,4.5,9.1,2,14.2c-2.5,5.1,3,17.2,4,18.7c1,1.5,12.6,32.9,16.6,66.7 c4,33.9,15.1,57.1,5.5,60.2c-9.6,3-29.3,6.6-31.3,3.5c-2-3-5-78.4-5-78.4l-5.5,28.8c0,0,7.6,49,2,50c-5.5,1-40.3-2-39.3-8.1 c1-6.1,11.1-37.9,11.1-37.9s-0.5-63.7,9.6-75.8c0,0,4-6.6-1.5-15.2c-5.5-8.6-5-22.2-5-22.2S192.2,211.4,198.7,202.3z"></path><path class="st5" d="M190,188.7l8.1,18.6l1.9-1l-8.4-18L190,188.7z"></path><path class="st5" d="M218,196.3l6.5,14l1.5-0.1l-0.5-2.4l-4.8-10.7C220,196.9,219.1,196.7,218,196.3z"></path><path class="st5" d="M197.4,185.3c1,3.3,3.8,5.6,7.1,5.9c3.3,0.3,6.5-1.4,8.1-4.4c-6.4-8.5-0.9-13.9,9.4-18c1.6-3,1.2-6.8-0.9-9.4 c-5.8-0.8-11.6,1.2-15.8,5.3l0,0l-7.3,14C196.9,180.8,196.7,183.2,197.4,185.3z"></path><path class="st6" d="M212.5,179.3c0.8,0,1.5-1.3,1.5-3c0-1.7-0.7-3-1.5-3s-1.5,1.3-1.5,3C211,178,211.7,179.3,212.5,179.3z"></path><path class="st5" d="M218,171.4l15.2,6.9l2.8-6.1c-0.5-2.2-1.5-4.3-2.9-6.1l-10.5-4.7L218,171.4z"></path><path class="st7" d="M38.5,346.3c2.5,0,4.5-2,4.5-4.5c0-2.5-2-4.5-4.5-4.5s-4.5,2-4.5,4.5C34,344.3,36,346.3,38.5,346.3z"></path><rect x="59" y="365.3" class="st3" width="1" height="50"></rect><path class="st3" d="M60,371.3c3.9,0,7-3.1,7-7s-3.1-7-7-7s-7,3.1-7,7S56.1,371.3,60,371.3z"></path><path class="st3" d="M59,395.3c0,0-1-21.3-21-18.8L59,395.3z"></path><path class="st8" d="M431.8,205.4v14.3l-8.9,0.1c-0.9,6.7-3.4,13-7.4,18.4l7.6,7.8l-10.4,10l-7.5-7.7c-4.6,3.1-9.8,5.3-15.3,6.4v9.3 h-14.4v-9.1c-6.1-0.9-12-3.2-17.1-6.7l-6.2,6.2L342,244.2l6.2-6.1c-3.9-5.4-6.4-11.8-7.3-18.4h-10v-14.3h10.3 c1.3-5.7,3.8-11,7.4-15.7l-5.8-5.9l10.4-10l5.9,6.1c4.9-3.2,10.4-5.3,16.2-6.1V164h14.4v10.1c5.9,1.2,11.4,3.6,16.2,7l7.4-7.2 l10.1,10.2l-7.4,7.3c2.9,4.3,4.9,9,6,14H431.8z M357.5,214.5c0,13.3,10.8,24.1,24.2,24.2c6.4,0,12.6-2.5,17.2-7 c4.6-4.5,7.1-10.7,7.1-17.1c0-13.3-10.8-24.1-24.2-24.2C368.4,190.3,357.6,201.1,357.5,214.5z"></path><path class="st8" d="M485,229.3l-0.6,8.4l-5.3-0.3c-0.8,3.9-2.5,7.5-5.1,10.5l4.1,4.9l-6.5,5.4l-4-4.9c-2.8,1.6-6,2.7-9.2,3.1 l-0.4,5.5l-8.4-0.6l0.4-5.3c-3.6-0.8-6.9-2.4-9.7-4.7l-3.9,3.4l-5.5-6.4l3.9-3.3c-2-3.4-3.2-7.2-3.4-11.1l-5.7-0.4l0.6-8.4l6,0.5 c1-3.3,2.7-6.3,5-8.9l-3.1-3.7l6.5-5.4l3.2,3.8c3-1.7,6.3-2.7,9.7-2.9l0.4-5.8l8.4,0.6l-0.5,5.9c3.4,0.9,6.5,2.6,9.1,4.9l4.6-3.9 l5.5,6.4l-4.7,4c1.5,2.6,2.5,5.5,2.9,8.5L485,229.3z M441.1,231.3c-0.6,7.8,5.3,14.7,13.1,15.3c3.8,0.3,7.5-0.9,10.4-3.4 c2.9-2.5,4.6-6,4.9-9.7c0.6-7.8-5.3-14.7-13.1-15.2C448.5,217.6,441.7,223.5,441.1,231.3z"></path></svg>